<?xml version="1.0" encoding="UTF-8" standalone="no"?>
<!-- Created with Inkscape (http://www.inkscape.org/) -->

<svg
   xmlns:dc="http://purl.org/dc/elements/1.1/"
   xmlns:cc="http://creativecommons.org/ns#"
   xmlns:rdf="http://www.w3.org/1999/02/22-rdf-syntax-ns#"
   xmlns:svg="http://www.w3.org/2000/svg"
   xmlns="http://www.w3.org/2000/svg"
   xmlns:sodipodi="http://sodipodi.sourceforge.net/DTD/sodipodi-0.dtd"
   xmlns:inkscape="http://www.inkscape.org/namespaces/inkscape"
   width="350.02151"
   height="265.00424"
   id="svg2"
   version="1.1"
   inkscape:version="0.48.4 r9939"
   sodipodi:docname="schema.svg">
  <sodipodi:namedview
     id="base"
     pagecolor="#ffffff"
     bordercolor="#666666"
     borderopacity="1.0"
     inkscape:pageopacity="0.0"
     inkscape:pageshadow="2"
     inkscape:zoom="1.979899"
     inkscape:cx="167.02747"
     inkscape:cy="133.88162"
     inkscape:document-units="px"
     inkscape:current-layer="layer1"
     showgrid="false"
     inkscape:window-width="1920"
     inkscape:window-height="1080"
     inkscape:window-x="0"
     inkscape:window-y="0"
     inkscape:window-maximized="0"
     fit-margin-top="0"
     fit-margin-left="0"
     fit-margin-right="0"
     fit-margin-bottom="0" />
  <defs
     id="defs4">
    <marker
       style="overflow:visible"
       id="Arrow2Lend"
       refX="0"
       refY="0"
       orient="auto"
       inkscape:stockid="Arrow2Lend">
      <path
         transform="matrix(-1.1,0,0,-1.1,-1.1,0)"
         d="M 8.7185878,4.0337352 -2.2072895,0.01601326 8.7185884,-4.0017078 c -1.7454984,2.3720609 -1.7354408,5.6174519 -6e-7,8.035443 z"
         style="fill-rule:evenodd;stroke-width:0.625;stroke-linejoin:round"
         id="path3782"
         inkscape:connector-curvature="0" />
    </marker>
  </defs>
  <metadata
     id="metadata7">
    <rdf:RDF>
      <cc:Work
         rdf:about="">
        <dc:format>image/svg+xml</dc:format>
        <dc:type
           rdf:resource="http://purl.org/dc/dcmitype/StillImage" />
        <dc:title></dc:title>
      </cc:Work>
    </rdf:RDF>
  </metadata>
  <g
     id="layer1"
     inkscape:groupmode="layer"
     inkscape:label="Calque 1"
     transform="translate(-185.21429,-110.71505)">
    <path
       inkscape:connector-curvature="0"
       id="path2985"
       d="m 185.70246,150.21937 348.23675,0"
       style="fill:none;stroke:#000000;stroke-width:0.97633147;stroke-linecap:butt;stroke-linejoin:miter;stroke-miterlimit:4;stroke-opacity:1;stroke-dasharray:none;marker-end:url(#Arrow2Lend)" />
    <path
       inkscape:connector-curvature="0"
       id="path2987"
       d="m 217.85716,375.22053 0,-263.18071"
       style="fill:none;stroke:#000000;stroke-width:0.99755347;stroke-linecap:butt;stroke-linejoin:miter;stroke-miterlimit:4;stroke-opacity:1;stroke-dasharray:none;marker-end:url(#Arrow2Lend)"
       sodipodi:nodetypes="cc" />
    <path
       inkscape:connector-curvature="0"
       id="path4825"
       d="m 291.78571,243.79075 92.14286,114.64286"
       style="fill:#999999;stroke:#000000;stroke-width:1;stroke-linecap:butt;stroke-linejoin:miter;stroke-miterlimit:4;stroke-opacity:1;stroke-dasharray:1, 3;stroke-dashoffset:0" />
    <path
       inkscape:connector-curvature="0"
       id="path4827"
       d="m 380.71429,278.07647 135.71428,29.64285"
       style="fill:none;stroke:#000000;stroke-width:0;stroke-linecap:butt;stroke-linejoin:miter;stroke-miterlimit:4;stroke-opacity:1;stroke-dasharray:none" />
    <path
       sodipodi:nodetypes="cc"
       inkscape:connector-curvature="0"
       id="path4825-2"
       d="m 361.42857,274.32647 137.14286,29.28572"
       style="fill:#999999;stroke:#000000;stroke-width:1;stroke-linecap:butt;stroke-linejoin:miter;stroke-miterlimit:4;stroke-opacity:1;stroke-dasharray:1, 3;stroke-dashoffset:0" />
    <path
       sodipodi:nodetypes="cc"
       inkscape:connector-curvature="0"
       id="path4906"
       d="m 322.14286,281.6479 c 0,0 11.25,-3.57143 7.5,-14.10715"
       style="fill:none;stroke:#000000;stroke-width:1px;stroke-linecap:butt;stroke-linejoin:miter;stroke-opacity:1" />
    <path
       sodipodi:nodetypes="cc"
       inkscape:connector-curvature="0"
       id="path4908"
       d="m 419.64286,302.36218 c 0,0 11.42857,-1.78572 8.92857,-13.75"
       style="fill:none;stroke:#000000;stroke-width:1px;stroke-linecap:butt;stroke-linejoin:miter;stroke-opacity:1" />
    <path
       sodipodi:nodetypes="cc"
       inkscape:connector-curvature="0"
       id="path4910"
       d="m 218.21429,182.71932 c 0,0 13.57143,6.07143 18.21428,-8.57142"
       style="fill:none;stroke:#000000;stroke-width:1px;stroke-linecap:butt;stroke-linejoin:miter;stroke-opacity:1" />
    <flowRoot
       style="font-size:20px;font-style:normal;font-weight:normal;line-height:125%;letter-spacing:0px;word-spacing:0px;fill:#000000;fill-opacity:1;stroke:none;font-family:Sans"
       id="flowRoot4948"
       xml:space="preserve"><flowRegion
         id="flowRegion4950"><rect
           y="220.21933"
           x="232.14285"
           height="29.285715"
           width="45.357143"
           id="rect4952" /></flowRegion><flowPara
         id="flowPara4956" /></flowRoot>    <g
       id="g3049"
       transform="matrix(0.41681026,0,0,0.41681026,-239.43051,21.927257)">
      <g
         word-spacing="normal"
         letter-spacing="normal"
         font-size-adjust="none"
         font-stretch="normal"
         font-weight="normal"
         font-variant="normal"
         font-style="normal"
         stroke-miterlimit="10.433"
         xml:space="preserve"
         transform="matrix(1.0629921,0,0,-1.0629921,-186.02362,789.27165)"
         id="content"
         style="font-style:normal;font-variant:normal;font-weight:normal;font-stretch:normal;letter-spacing:normal;word-spacing:normal;text-anchor:start;fill:none;stroke:#000000;stroke-linecap:butt;stroke-linejoin:miter;stroke-miterlimit:10.43299961;stroke-opacity:1;stroke-dasharray:none;stroke-dashoffset:0"><path
           id="path3052"
           d="m 1247.9,358.21 0,0.36 0,0.35 0,0.35 -0.1,0.34 0,0.66 -0.1,0.62 -0.1,0.6 -0.2,0.56 -0.1,0.54 -0.2,0.51 -0.2,0.49 -0.2,0.46 -0.2,0.43 -0.3,0.4 -0.2,0.38 -0.3,0.36 -0.3,0.33 -0.3,0.31 -0.3,0.29 -0.3,0.26 -0.3,0.24 -0.4,0.22 -0.3,0.2 -0.4,0.18 -0.3,0.16 -0.4,0.14 -0.3,0.13 -0.4,0.1 -0.4,0.09 -0.3,0.07 -0.4,0.05 -0.3,0.04 -0.4,0.02 -0.3,0.01 -0.1,-1.1 c 4.9,0 4.9,-6.53 4.9,-10.4 0,-1.85 0,-4.74 0.1,-5.58 h 0 c -4.3,-3.84 -8.2,-4.39 -10.2,-4.39 -3,0 -4.4,2.25 -4.4,5.44 0,2.43 1.3,7.81 2.9,10.36 2.3,3.64 5,4.57 6.7,4.57 l 0.1,1.1 c -6.8,0 -13.4,-7.13 -13.4,-14.14 0,-4.64 3,-8.43 8,-8.43 3.2,0 6.8,1.15 10.6,4.19 0.6,-2.64 2.2,-4.19 4.5,-4.19 2.6,0 4.2,2.74 4.2,3.54 0,0.36 -0.3,0.5 -0.6,0.5 -0.4,0 -0.5,-0.14 -0.7,-0.5 -0.9,-2.44 -2.7,-2.44 -2.8,-2.44 -1.5,0 -1.5,3.89 -1.5,5.08 0,1.04 0,1.15 0.5,1.75 4.7,5.87 5.7,11.65 5.7,11.7 0,0.11 0,0.5 -0.6,0.5 -0.5,0 -0.5,-0.14 -0.7,-1.05 -0.9,-3.14 -2.6,-6.92 -4.9,-9.86 z"
           inkscape:connector-curvature="0"
           style="fill:#000000;stroke-width:0" /></g>    </g>
    <g
       transform="matrix(0.39022699,0,0,0.39022699,-92.200625,132.27331)"
       id="g3122">
      <g
         style="font-style:normal;font-variant:normal;font-weight:normal;font-stretch:normal;letter-spacing:normal;word-spacing:normal;text-anchor:start;fill:none;stroke:#000000;stroke-linecap:butt;stroke-linejoin:miter;stroke-miterlimit:10.43299961;stroke-opacity:1;stroke-dasharray:none;stroke-dashoffset:0"
         id="g3124"
         transform="matrix(1.0629921,0,0,-1.0629921,-186.02362,789.27165)"
         xml:space="preserve"
         stroke-miterlimit="10.433"
         font-style="normal"
         font-variant="normal"
         font-weight="normal"
         font-stretch="normal"
         font-size-adjust="none"
         letter-spacing="normal"
         word-spacing="normal"><path
           style="fill:#000000;stroke-width:0"
           inkscape:connector-curvature="0"
           d="m 1253.4,374.79 0,0.34 -0.1,0.35 0,0.34 -0.1,0.33 0,0.33 -0.1,0.32 -0.1,0.32 -0.1,0.31 -0.2,0.3 -0.1,0.29 -0.2,0.29 -0.1,0.28 -0.2,0.26 -0.2,0.26 -0.2,0.25 -0.2,0.24 -0.2,0.23 -0.3,0.21 -0.2,0.21 -0.3,0.19 -0.3,0.18 -0.3,0.16 -0.2,0.15 -0.4,0.14 -0.3,0.12 -0.3,0.11 -0.3,0.1 -0.4,0.07 -0.3,0.06 -0.4,0.05 -0.3,0.02 -0.4,0.01 c -2.9,0 -4.3,-0.79 -6,-2.09 -2.8,-1.98 -5.5,-6.83 -6.5,-10.61 l -7.9,-31.64 c 0,-0.19 0.2,-0.5 0.6,-0.5 0.4,0 0.6,0.11 0.6,0.25 l 3.5,13.75 c 0.9,-2.98 3.1,-4.83 6.8,-4.83 l -0.2,1.1 c -3.8,0 -5.7,2.89 -5.7,6.43 0,0.49 0,1.24 0.3,2.19 l 3.2,12.61 c 1.1,4.28 4.7,12.2 10.6,12.2 2.9,0 4.7,-1.54 4.7,-4.53 h 0 c 0,-3.5 -1.9,-7.08 -4.5,-8.62 -1.3,0.5 -2.3,0.59 -3.9,0.59 -1,0 -3.8,0.05 -3.8,-1.59 0,-1.39 2.5,-1.24 3.5,-1.24 l 0.1,1.1 c -0.7,0 -1.7,-0.07 -2.2,0.18 0.1,0.5 1.9,0.41 2.4,0.41 1.1,0 1.6,0 2.2,-0.25 h 0 c -0.6,-0.25 -1.2,-0.34 -2.4,-0.34 l -0.1,-1.1 c 1.8,0 2.5,0.05 4,0.64 1.9,-1.79 2.2,-3.34 2.2,-5.62 0.1,-2.89 -1.1,-6.63 -2.5,-8.58 -1.9,-2.69 -5.2,-4.48 -8.1,-4.48 l 0.2,-1.1 c 3.6,0 7.4,1.75 9.6,3.94 2.4,2.3 4,5.48 4,9.17 0,3.58 -1.9,6.17 -3.7,7.42 2.9,1.64 5.8,4.74 5.8,8.32 z"
           id="path3126" /></g>    </g>
    <g
       id="g3202"
       transform="matrix(0.43100524,0,0,0.43100524,-43.857097,127.32673)">
      <g
         word-spacing="normal"
         letter-spacing="normal"
         font-size-adjust="none"
         font-stretch="normal"
         font-weight="normal"
         font-variant="normal"
         font-style="normal"
         stroke-miterlimit="10.433"
         xml:space="preserve"
         transform="matrix(1.0629921,0,0,-1.0629921,-186.02362,789.27165)"
         id="g3204"
         style="font-style:normal;font-variant:normal;font-weight:normal;font-stretch:normal;letter-spacing:normal;word-spacing:normal;text-anchor:start;fill:none;stroke:#000000;stroke-linecap:butt;stroke-linejoin:miter;stroke-miterlimit:10.43299961;stroke-opacity:1;stroke-dasharray:none;stroke-dashoffset:0"><path
           id="path3206"
           d="m 1227.8,359.1 0.1,0.26 0.1,0.26 0.1,0.25 0.2,0.24 0.1,0.23 0.1,0.23 0.1,0.21 0.1,0.21 0.2,0.21 0.1,0.19 0.1,0.19 0.2,0.18 0.2,0.34 0.3,0.32 0.3,0.29 0.3,0.27 0.3,0.24 0.4,0.23 0.3,0.2 0.3,0.18 0.3,0.16 0.3,0.15 0.3,0.13 0.3,0.11 0.3,0.1 0.3,0.08 0.3,0.07 0.3,0.06 0.2,0.05 0.3,0.04 0.2,0.03 0.2,0.03 0.2,0.01 0.2,0.02 0.1,0 0.1,0.01 0.1,0 0.1,0 c 7.5,0 8,-8.72 8,-12.66 0,-3.04 -0.2,-3.89 -0.6,-4.89 -1.1,-3.62 -2.6,-9.4 -2.6,-10.7 0,-0.55 0.3,-0.91 0.7,-0.91 0.6,0 1,1.11 1.6,3 1.1,4.19 1.6,7.02 1.8,8.57 0.1,0.65 0.2,1.29 0.4,1.95 1.6,4.92 4.8,12.34 6.8,16.28 0.3,0.59 0.9,1.7 0.9,1.89 0,0.5 -0.4,0.5 -0.6,0.5 -0.1,0 -0.4,0 -0.5,-0.34 -2.6,-4.74 -4.6,-9.72 -6.6,-14.75 -0.1,1.54 -0.1,5.32 -2.1,10.17 -1.2,3.03 -3.2,5.47 -6.6,5.47 -6.2,0 -9.7,-7.57 -9.7,-9.11 0,-0.5 0.4,-0.5 0.9,-0.5 z"
           inkscape:connector-curvature="0"
           style="fill:#000000;stroke-width:0" /></g>    </g>
    <g
       transform="matrix(0.33486264,0,0,0.33486264,-90.462568,77.282366)"
       id="g3288"
       style="fill:#0000ff">
      <g
         style="font-style:normal;font-variant:normal;font-weight:normal;font-stretch:normal;letter-spacing:normal;word-spacing:normal;text-anchor:start;fill:#0000ff;stroke:#000000;stroke-linecap:butt;stroke-linejoin:miter;stroke-miterlimit:10.43299961;stroke-opacity:1;stroke-dasharray:none;stroke-dashoffset:0"
         id="g3290"
         transform="matrix(1.0629921,0,0,-1.0629921,-186.02362,789.27165)"
         xml:space="preserve"
         stroke-miterlimit="10.433"
         font-style="normal"
         font-variant="normal"
         font-weight="normal"
         font-stretch="normal"
         font-size-adjust="none"
         letter-spacing="normal"
         word-spacing="normal"><path
           style="fill:#0000ff;stroke-width:0"
           inkscape:connector-curvature="0"
           d="m 1229.3,380.47 0,0.01 0,0 0,0.01 0,0.01 0,0.01 0,0.01 0,0.02 0,0.02 0,0.02 0,0.02 0,0.02 0,0.02 0,0.03 0,0.02 -0.1,0.02 0,0.03 0,0.02 0,0.03 0,0.02 0,0.03 -0.1,0.02 0,0.01 0,0.01 0,0.01 0,0.01 0,0.01 0,0.01 -0.1,0.01 0,0.01 0,0.01 0,0.01 0,0.01 -0.1,0 0,0.01 0,0.01 0,0 0,0.01 -0.1,0 0,0.01 0,0 0,0 -0.1,0.01 0,0 0,0 -0.1,0 c -1.1,0 -4.7,-0.41 -6,-0.5 -0.4,-0.05 -1,-0.09 -1,-1.05 0,-0.54 0.5,-0.54 1.3,-0.54 2.3,0 2.4,-0.46 2.4,-0.85 l -0.1,-1 -6.3,-24.9 c -0.2,-0.55 -0.3,-0.91 -0.3,-1.71 0,-2.83 2.2,-4.58 4.6,-4.58 1.6,0 2.9,1 3.7,2.79 0.9,1.9 1.5,4.79 1.5,4.89 0,0.5 -0.4,0.5 -0.6,0.5 -0.5,0 -0.6,-0.21 -0.7,-0.91 -0.9,-3.23 -1.8,-6.17 -3.8,-6.17 -1.5,0 -1.5,1.59 -1.5,2.3 0,1.18 0.1,1.43 0.3,2.39 z"
           id="path3292" /><path
           style="fill:#0000ff;stroke-width:0"
           inkscape:connector-curvature="0"
           d="m 1238.5,343.07 -0.1,-0.18 -0.1,-0.17 -0.2,-0.16 -0.1,-0.16 -0.1,-0.15 -0.1,-0.14 -0.1,-0.15 -0.1,-0.13 -0.1,-0.13 -0.2,-0.12 -0.1,-0.12 -0.1,-0.12 -0.1,-0.1 -0.1,-0.11 -0.2,-0.1 -0.1,-0.09 -0.1,-0.09 -0.2,-0.08 -0.1,-0.08 -0.1,-0.07 -0.2,-0.07 -0.1,-0.06 -0.2,-0.06 -0.1,-0.05 -0.2,-0.05 -0.1,-0.04 -0.2,-0.04 -0.2,-0.03 -0.1,-0.03 -0.2,-0.03 -0.2,-0.02 -0.2,-0.01 c -0.3,-0.03 -0.8,-0.03 -0.8,-0.74 0,-0.37 0.3,-0.51 0.5,-0.51 0.9,0 2,0.14 3,0.14 1.1,0 2.5,-0.14 3.6,-0.14 0.2,0 0.7,0 0.7,0.76 0,0.46 -0.5,0.49 -0.6,0.49 -0.3,0.05 -1.6,0.11 -1.6,1.05 0,0.42 0.4,1.01 0.6,1.32 l 2.8,4.32 h 9.9 l -0.1,1.26 h -9 l 7.3,11.39 1.7,-11.39 0.1,-1.26 0.9,-5.78 c -0.2,-0.35 -0.4,-0.91 -2.4,-0.91 -0.5,0 -0.9,0 -0.9,-0.77 0,-0.14 0,-0.48 0.5,-0.48 1,0 3.5,0.14 4.5,0.14 0.6,0 1.4,-0.03 2.1,-0.03 0.6,-0.05 1.3,-0.11 1.9,-0.11 0.5,0 0.7,0.28 0.7,0.73 0,0.52 -0.4,0.52 -0.9,0.52 -2,0 -2.1,0.28 -2.2,1.12 l -3.1,21.5 c -0.1,0.72 -0.2,0.97 -0.8,0.97 -0.7,0 -0.9,-0.31 -1.2,-0.79 z"
           id="path3294" /></g>    </g>
    <g
       transform="matrix(0.33486264,0,0,0.33486264,0.23905089,123.74938)"
       id="g3384"
       style="fill:#ff0000">
      <g
         style="font-style:normal;font-variant:normal;font-weight:normal;font-stretch:normal;letter-spacing:normal;word-spacing:normal;text-anchor:start;fill:#ff0000;stroke:#000000;stroke-linecap:butt;stroke-linejoin:miter;stroke-miterlimit:10.43299961;stroke-opacity:1;stroke-dasharray:none;stroke-dashoffset:0"
         word-spacing="normal"
         letter-spacing="normal"
         font-size-adjust="none"
         font-stretch="normal"
         font-weight="normal"
         font-variant="normal"
         font-style="normal"
         stroke-miterlimit="10.433"
         xml:space="preserve"
         transform="matrix(1.0629921,0,0,-1.0629921,-186.02362,789.27165)"
         id="g3386"><path
           style="fill:#ff0000;stroke-width:0"
           inkscape:connector-curvature="0"
           id="path3388"
           d="m 1228.9,380.47 0,0.01 0,0 0,0.01 0,0.01 0,0.01 0,0.01 0,0.02 0,0.02 0,0.02 0,0.02 0,0.02 0,0.02 0,0.03 0,0.02 0,0.02 0,0.03 0,0.02 -0.1,0.03 0,0.02 0,0.03 0,0.02 0,0.01 0,0.01 -0.1,0.01 0,0.01 0,0.01 0,0.01 0,0.01 0,0.01 -0.1,0.01 0,0.01 0,0.01 0,0 0,0.01 -0.1,0.01 0,0 0,0.01 0,0 -0.1,0.01 0,0 0,0 0,0.01 -0.1,0 0,0 0,0 c -1.2,0 -4.8,-0.41 -6.1,-0.5 -0.4,-0.05 -0.9,-0.09 -0.9,-1.05 0,-0.54 0.5,-0.54 1.2,-0.54 2.4,0 2.4,-0.46 2.4,-0.85 l -0.1,-1 -6.3,-24.9 c -0.1,-0.55 -0.2,-0.91 -0.2,-1.71 0,-2.83 2.2,-4.58 4.5,-4.58 1.6,0 2.9,1 3.8,2.79 0.8,1.9 1.4,4.79 1.4,4.89 0,0.5 -0.4,0.5 -0.6,0.5 -0.5,0 -0.5,-0.21 -0.7,-0.91 -0.8,-3.23 -1.8,-6.17 -3.8,-6.17 -1.5,0 -1.5,1.59 -1.5,2.3 0,1.18 0.1,1.43 0.4,2.39 z" /><path
           style="fill:#ff0000;stroke-width:0"
           inkscape:connector-curvature="0"
           id="path3390"
           d="m 1242.9,350.1 h 3.7 c 2.7,0 3.1,-0.42 3.1,-1.56 0,-0.54 0,-0.6 -0.2,-1.58 -0.1,-0.21 -0.2,-0.32 -0.2,-0.41 0,-0.36 0.3,-0.53 0.6,-0.53 0.5,0 0.5,0.17 0.7,0.8 l 1.9,7.39 c 0,0.11 0.1,0.62 0.1,0.7 0,0.34 -0.2,0.52 -0.6,0.52 -0.4,0 -0.5,-0.21 -0.7,-0.83 -0.6,-2.72 -1.7,-3.25 -4.6,-3.25 h -3.5 l 2.2,8.75 c 0.3,1.08 0.3,1.19 1.8,1.19 h 5.3 c 4.6,0 5.5,-1.11 5.5,-4.02 0,-1.14 -0.1,-1.88 -0.1,-2.16 0,-0.28 0.1,-0.59 0.6,-0.59 0.5,0 0.5,0.31 0.6,0.91 l 0.6,6.06 c 0.1,1.05 -0.1,1.05 -1,1.05 h -18.6 c -0.7,0 -1.1,0 -1.1,-0.77 0,-0.48 0.4,-0.48 1.1,-0.48 0,0 0.7,0 1.3,-0.08 0.8,-0.07 0.8,-0.13 0.8,-0.49 0,-0.23 -0.1,-0.59 -0.1,-0.76 l -4.6,-18.22 c -0.3,-1.36 -0.4,-1.61 -3.1,-1.61 -0.6,0 -1,0 -1,-0.74 0,-0.34 0.2,-0.51 0.5,-0.51 1,0 3.6,0.14 4.6,0.14 l 2.7,-0.03 c 0.9,0 1.9,-0.11 2.8,-0.11 0.2,0 0.7,0 0.7,0.76 0,0.49 -0.4,0.49 -1.2,0.49 -0.1,0 -0.9,0 -1.8,0.08 -0.7,0.06 -1.1,0.09 -1.1,0.59 0,0.14 0,0.24 0.1,0.63 z" /></g>    </g>
    <g
       transform="matrix(0.33486264,0,0,0.33486264,25.59112,171.28422)"
       id="g3488"
       style="fill:#008000">
      <g
         style="font-style:normal;font-variant:normal;font-weight:normal;font-stretch:normal;letter-spacing:normal;word-spacing:normal;text-anchor:start;fill:#008000;stroke:#000000;stroke-linecap:butt;stroke-linejoin:miter;stroke-miterlimit:10.43299961;stroke-opacity:1;stroke-dasharray:none;stroke-dashoffset:0"
         id="g3490"
         transform="matrix(1.0629921,0,0,-1.0629921,-186.02362,789.27165)"
         xml:space="preserve"
         stroke-miterlimit="10.433"
         font-style="normal"
         font-variant="normal"
         font-weight="normal"
         font-stretch="normal"
         font-size-adjust="none"
         letter-spacing="normal"
         word-spacing="normal"><path
           style="fill:#008000;stroke-width:0"
           inkscape:connector-curvature="0"
           d="m 1226.7,380.47 0,0.01 0,0 0,0.01 0,0.01 0,0.01 0,0.01 0,0.02 0,0.02 -0.1,0.02 0,0.02 0,0.02 0,0.02 0,0.03 0,0.02 0,0.02 0,0.03 0,0.02 0,0.03 -0.1,0.02 0,0.03 0,0.02 0,0.01 0,0.01 0,0.01 -0.1,0.01 0,0.01 0,0.01 0,0.01 0,0.01 0,0.01 -0.1,0.01 0,0.01 0,0 0,0.01 0,0.01 -0.1,0 0,0.01 0,0 0,0.01 -0.1,0 0,0 0,0.01 0,0 -0.1,0 0,0 c -1.1,0 -4.8,-0.41 -6.1,-0.5 -0.4,-0.05 -0.9,-0.09 -0.9,-1.05 0,-0.54 0.5,-0.54 1.2,-0.54 2.4,0 2.5,-0.46 2.5,-0.85 l -0.2,-1 -6.3,-24.9 c -0.1,-0.55 -0.2,-0.91 -0.2,-1.71 0,-2.83 2.2,-4.58 4.5,-4.58 1.7,0 2.9,1 3.8,2.79 0.9,1.9 1.5,4.79 1.5,4.89 0,0.5 -0.5,0.5 -0.6,0.5 -0.5,0 -0.6,-0.21 -0.7,-0.91 -0.9,-3.23 -1.8,-6.17 -3.8,-6.17 -1.5,0 -1.5,1.59 -1.5,2.3 0,1.18 0,1.43 0.3,2.39 z"
           id="path3492" /><path
           style="fill:#008000;stroke-width:0"
           inkscape:connector-curvature="0"
           d="m 1258,359.85 0,0.12 0,0.11 0.1,0.11 0,0.1 0,0.09 0.1,0.1 0,0.08 0,0.08 0.1,0.08 0,0.07 0,0.07 0.1,0.06 0,0.05 0.1,0.06 0,0.05 0.1,0.04 0.1,0.05 0.1,0.03 0.1,0.04 0.1,0.03 0.1,0.03 0,0.01 0.1,0.01 0,0.01 0.1,0.01 0.1,0.01 0,0.01 0.1,0.01 0.1,0.01 0.1,0.01 0,0 0.1,0.01 0.1,0 0.1,0.01 0.1,0 0.1,0 0.1,0.01 0.1,0 0.1,0 0.1,0 0.1,0.01 0.1,0 0.1,0 c 0.8,0 1.2,0 1.2,0.76 0,0.14 -0.1,0.49 -0.5,0.49 -1,0 -3.6,-0.14 -4.6,-0.14 -0.6,0 -1.8,0 -2.4,0.03 -0.7,0.04 -1.5,0.11 -2.2,0.11 -0.2,0 -0.7,0 -0.7,-0.77 0,-0.48 0.4,-0.48 1.1,-0.48 0,0 0.7,0 1.3,-0.08 0.7,-0.06 0.8,-0.14 0.8,-0.49 0,-0.03 0,-0.23 -0.1,-0.76 l -2.1,-8.22 h -11.6 l 2,8.08 c 0.3,1.18 0.4,1.47 3,1.47 0.6,0 1.1,0 1.1,0.76 0,0.14 -0.1,0.49 -0.6,0.49 -1,0 -3.5,-0.14 -4.5,-0.14 -0.6,0 -1.9,0 -2.4,0.03 -0.7,0.04 -1.6,0.11 -2.2,0.11 -0.2,0 -0.8,0 -0.8,-0.77 0,-0.48 0.5,-0.48 1.1,-0.48 0.1,0 0.7,0 1.4,-0.08 0.7,-0.06 0.8,-0.14 0.8,-0.49 0,-0.06 0,-0.23 -0.2,-0.76 l -4.6,-18.5 c -0.3,-1.19 -0.4,-1.47 -3.1,-1.47 -0.6,0 -1,0 -1,-0.74 0,-0.34 0.2,-0.51 0.6,-0.51 1,0 3.5,0.14 4.5,0.14 0.6,0 1.8,0 2.4,-0.03 0.7,-0.05 1.6,-0.11 2.2,-0.11 0.2,0 0.7,0 0.7,0.73 0,0.52 -0.3,0.52 -1.1,0.52 -0.6,0 -0.7,0 -1.3,0.08 -0.8,0.09 -0.8,0.17 -0.8,0.51 0,0.03 0,0.25 0.1,0.77 l 2.3,9.14 h 11.7 l -2.2,-9.03 c -0.3,-1.19 -0.4,-1.47 -3.1,-1.47 -0.6,0 -1.1,0 -1.1,-0.74 0,-0.34 0.3,-0.51 0.6,-0.51 1,0 3.5,0.14 4.5,0.14 0.6,0 1.8,0 2.4,-0.03 0.7,-0.05 1.6,-0.11 2.3,-0.11 0.1,0 0.7,0 0.7,0.73 0,0.52 -0.4,0.52 -1.2,0.52 -0.5,0 -0.7,0 -1.3,0.08 -0.8,0.09 -0.8,0.17 -0.8,0.51 0,0.22 0.1,0.57 0.2,0.77 z"
           id="path3494" /></g>    </g>
    <g
       id="g3600"
       transform="matrix(0.28329876,0,0,0.28329876,-46.974929,164.28985)">
      <g
         word-spacing="normal"
         letter-spacing="normal"
         font-size-adjust="none"
         font-stretch="normal"
         font-weight="normal"
         font-variant="normal"
         font-style="normal"
         stroke-miterlimit="10.433"
         xml:space="preserve"
         transform="matrix(1.0629921,0,0,-1.0629921,-186.02362,789.27165)"
         id="g3602"
         style="font-style:normal;font-variant:normal;font-weight:normal;font-stretch:normal;letter-spacing:normal;word-spacing:normal;text-anchor:start;fill:none;stroke:#000000;stroke-linecap:butt;stroke-linejoin:miter;stroke-miterlimit:10.43299961;stroke-opacity:1;stroke-dasharray:none;stroke-dashoffset:0"><path
           id="path3604"
           d="m 1157.4,334.49 0,0.02 0,0.03 0,0.01 0,0.02 0,0.01 0,0.02 0,0.02 0,0.01 0,0.02 0,0.02 0,0.03 0,0.02 0,0.02 -0.1,0.03 0,0.03 0,0.03 0,0.04 -0.1,0.03 0,0.02 0,0.02 0,0.02 0,0.02 0,0.02 -0.1,0.03 0,0.02 0,0.02 0,0.03 -0.1,0.03 0,0.02 0,0.03 0,0.03 -0.1,0.03 0,0.03 0,0.03 -0.1,0.03 0,0.03 0,0.04 -0.1,0.03 0,0.04 0,0.04 -0.1,0.03 0,0.04 c -6.2,6.28 -7.8,15.69 -7.8,23.31 0,8.68 1.9,17.35 8,23.57 0.6,0.61 0.6,0.7 0.6,0.86 0,0.34 -0.1,0.48 -0.4,0.48 -0.5,0 -5,-3.37 -8,-9.7 -2.5,-5.49 -3.1,-11.02 -3.1,-15.21 0,-3.89 0.5,-9.9 3.3,-15.54 3,-6.13 7.3,-9.36 7.8,-9.36 0.3,0 0.4,0.14 0.4,0.5 z"
           inkscape:connector-curvature="0"
           style="fill:#000000;stroke-width:0" /><path
           id="path3606"
           d="m 1184.4,366.93 -4.1,9.9 c -0.2,0.41 -0.3,0.6 -0.3,0.64 0,0.32 0.9,1.25 2.9,1.46 0.5,0.04 1,0.09 1,0.95 0,0.59 -0.6,0.59 -0.7,0.59 -2,0 -4.2,-0.15 -6.3,-0.15 -1.2,0 -4.3,0.15 -5.6,0.15 -0.3,0 -0.9,0 -0.9,-1 0,-0.54 0.5,-0.54 1.2,-0.54 3,0 3.3,-0.5 3.7,-1.6 l 5.9,-13.9 -10.5,-11.32 -0.7,-0.54 c -2.4,-2.64 -4.7,-3.44 -7.3,-3.58 -0.6,-0.05 -1.1,-0.05 -1.1,-1 0,-0.05 0,-0.55 0.7,-0.55 1.5,0 3.1,0.16 4.6,0.16 1.9,0 3.9,-0.16 5.6,-0.16 0.3,0 0.9,0 0.9,1 0,0.5 -0.5,0.55 -0.6,0.55 -0.4,0.05 -2,0.14 -2,1.55 0,0.79 0.8,1.59 1.4,2.23 l 5.1,5.39 4.5,4.88 5,-11.91 c 0.2,-0.55 0.2,-0.59 0.2,-0.7 0,-0.39 -0.9,-1.24 -2.9,-1.44 -0.5,-0.05 -0.9,-0.11 -0.9,-0.95 0,-0.6 0.5,-0.6 0.7,-0.6 1.4,0 4.9,0.16 6.3,0.16 1.2,0 4.2,-0.16 5.5,-0.16 0.3,0 1,0 1,0.95 0,0.6 -0.5,0.6 -0.9,0.6 -3.4,0.05 -3.5,0.2 -4.3,2.19 -2,4.64 -5.3,12.4 -6.5,15.39 3.4,3.5 8.7,9.42 10.2,10.81 1.5,1.2 3.4,2.39 6.4,2.55 0.6,0.04 1.1,0.04 1.1,1 0,0.04 0,0.54 -0.7,0.54 -1.5,0 -3.1,-0.15 -4.7,-0.15 -1.8,0 -3.7,0.15 -5.5,0.15 -0.3,0 -0.9,0 -0.9,-1 0,-0.34 0.2,-0.5 0.6,-0.54 0.4,-0.05 2,-0.16 2,-1.55 0,-0.7 -0.6,-1.34 -1,-1.8 z"
           inkscape:connector-curvature="0"
           style="fill:#000000;stroke-width:0" /><path
           id="path3608"
           d="m 1229.2,346.93 0,0.02 0,0.02 0,0.02 0,0.02 0,0.02 0,0.02 0,0.01 0,0.02 0,0.02 0,0.02 0.1,0.03 0,0.03 0,0.03 0,0.03 0,0.03 0,0.02 0,0.02 0,0.03 0,0.02 0,0.02 0,0.02 0,0.01 0.1,0.02 0,0.02 0,0.01 0,0.01 0,0.01 0,0.01 0,0.01 0,0.01 0,0.01 0,0.01 0,0 0,0.01 0,0 0,0.01 0,0 c 0,0.22 -0.2,0.5 -0.6,0.5 -0.1,0 -0.3,0 -0.4,-0.14 -0.1,-0.08 -0.1,-0.11 -0.5,-1.02 -2.3,-5.01 -4.1,-6.76 -9.8,-6.76 h -5.9 c -1.1,0 -1.1,0.05 -1.1,0.36 0,0.03 0,0.2 0.1,0.72 l 2.4,9.34 h 3.9 c 2.7,0 3.2,-0.45 3.2,-1.61 0,-0.37 -0.2,-0.97 -0.3,-1.56 -0.1,-0.31 -0.1,-0.34 -0.1,-0.42 0,-0.07 0,-0.49 0.6,-0.49 0.5,0 0.5,0.17 0.7,0.77 l 1.9,7.64 c 0.1,0.41 0.1,0.48 0.1,0.51 0,0.35 -0.3,0.49 -0.6,0.49 -0.5,0 -0.5,-0.17 -0.7,-0.91 -0.7,-2.72 -1.8,-3.17 -4.7,-3.17 h -3.7 l 2.1,8.3 c 0.3,1.08 0.3,1.19 1.8,1.19 h 5.6 c 4.6,0 5.8,-0.94 5.8,-4.05 0,-0.91 -0.2,-1.95 -0.2,-2.13 0,-0.28 0.1,-0.59 0.6,-0.59 0.5,0 0.6,0.31 0.6,0.91 l 0.7,6.06 c 0.1,1.05 -0.2,1.05 -1,1.05 h -19.2 c -0.7,0 -1.1,0 -1.1,-0.77 0,-0.48 0.3,-0.48 1.1,-0.48 0.6,0 0.7,0 1.3,-0.08 0.8,-0.07 0.8,-0.13 0.8,-0.49 0,-0.23 -0.1,-0.59 -0.1,-0.76 l -4.6,-18.22 c -0.3,-1.36 -0.4,-1.61 -3.1,-1.61 -0.6,0 -1,0 -1,-0.77 0,-0.48 0.4,-0.48 1,-0.48 h 19.7 c 0.9,0 0.9,0 1.2,0.62 z"
           inkscape:connector-curvature="0"
           style="fill:#000000;stroke-width:0" /><path
           id="path3610"
           d="m 1245.4,346.49 0,0.3 0,0.3 0,0.29 -0.1,0.28 0,0.27 0,0.27 -0.1,0.25 0,0.25 -0.1,0.23 -0.1,0.23 0,0.22 -0.1,0.21 -0.1,0.2 -0.1,0.2 -0.1,0.18 -0.1,0.17 -0.1,0.17 -0.1,0.15 -0.1,0.14 -0.1,0.14 -0.2,0.12 -0.1,0.11 -0.1,0.11 -0.2,0.09 -0.1,0.08 -0.2,0.07 -0.1,0.06 -0.2,0.05 -0.2,0.04 -0.1,0.03 -0.2,0.02 -0.2,0 c -1.6,0 -2.6,-1.25 -2.6,-2.64 0,-1.34 1,-2.64 2.6,-2.64 0.6,0 1.2,0.2 1.7,0.64 0.2,0.11 0.3,0.16 0.3,0.16 0,0 0.1,-0.05 0.1,-0.75 0,-3.69 -1.7,-6.67 -3.4,-8.31 -0.5,-0.55 -0.5,-0.66 -0.5,-0.8 0,-0.36 0.2,-0.55 0.5,-0.55 0.5,0 4.5,3.83 4.5,9.66 z"
           inkscape:connector-curvature="0"
           style="fill:#000000;stroke-width:0" /><path
           id="path3612"
           d="m 1287.1,374.79 0.7,0.7 c 1.5,1.5 3.1,3.19 6.5,3.44 0.6,0.04 1,0.04 1,0.95 0,0.39 -0.2,0.59 -0.6,0.59 -1.3,0 -2.8,-0.15 -4.1,-0.15 -1.7,0 -3.4,0.15 -5,0.15 -0.3,0 -0.9,0 -0.9,-0.95 0,-0.55 0.5,-0.59 0.7,-0.59 0.4,0 1.8,-0.1 1.8,-1.14 0,-0.86 -1.1,-2.15 -1.3,-2.4 l -11.6,-13.31 -5.5,14.8 c -0.3,0.7 -0.3,0.8 -0.3,0.84 0,1.21 2.4,1.21 2.9,1.21 0.8,0 1.3,0 1.3,1 0,0.54 -0.6,0.54 -0.8,0.54 -1.4,0 -4.9,-0.15 -6.3,-0.15 -1.2,0 -4.3,0.15 -5.6,0.15 -0.2,0 -0.9,0 -0.9,-1 0,-0.54 0.5,-0.54 1.1,-0.54 3,0 3.2,-0.46 3.7,-1.69 l 6.1,-16.41 c 0.1,-0.14 0.2,-0.69 0.2,-0.84 0,-0.14 -2,-8.17 -2.2,-9.06 -0.7,-2.74 -0.7,-2.89 -4.7,-2.94 -1,0 -1.4,0 -1.4,-1 0,-0.55 0.6,-0.55 0.7,-0.55 1.4,0 4.9,0.16 6.3,0.16 1.4,0 5,-0.16 6.4,-0.16 0.3,0 0.9,0 0.9,1 0,0.55 -0.4,0.55 -1.4,0.55 0,0 -1,0 -1.9,0.09 -1,0.11 -1.3,0.21 -1.3,0.8 0,0.36 0.5,2.09 0.7,3.14 l 1.7,7.03 c 0.3,0.94 0.3,1.09 0.8,1.55 z"
           inkscape:connector-curvature="0"
           style="fill:#000000;stroke-width:0" /><path
           id="path3614"
           d="m 1313.9,346.93 0,0.02 0,0.02 0,0.02 0,0.02 0,0.02 0,0.02 0,0.01 0,0.02 0.1,0.02 0,0.02 0,0.03 0,0.03 0,0.03 0,0.03 0,0.03 0,0.02 0,0.02 0,0.03 0.1,0.02 0,0.02 0,0.02 0,0.01 0,0.02 0,0.02 0,0.01 0,0.01 0,0.01 0,0.01 0,0.01 0,0.01 0,0.01 0,0.01 0,0 0,0.01 0,0 0,0.01 0,0 c 0,0.22 -0.2,0.5 -0.6,0.5 -0.1,0 -0.3,0 -0.4,-0.14 0,-0.08 -0.1,-0.11 -0.5,-1.02 -2.3,-5.01 -4,-6.76 -9.7,-6.76 h -6 c -1,0 -1.1,0.05 -1.1,0.36 0,0.03 0,0.2 0.2,0.72 l 2.3,9.34 h 3.9 c 2.7,0 3.2,-0.45 3.2,-1.61 0,-0.37 -0.1,-0.97 -0.3,-1.56 -0.1,-0.31 -0.1,-0.34 -0.1,-0.42 0,-0.07 0.1,-0.49 0.6,-0.49 0.5,0 0.5,0.17 0.7,0.77 l 1.9,7.64 c 0.1,0.41 0.1,0.48 0.1,0.51 0,0.35 -0.3,0.49 -0.6,0.49 -0.5,0 -0.5,-0.17 -0.7,-0.91 -0.7,-2.72 -1.8,-3.17 -4.7,-3.17 h -3.7 l 2.1,8.3 c 0.3,1.08 0.3,1.19 1.8,1.19 h 5.7 c 4.5,0 5.7,-0.94 5.7,-4.05 0,-0.91 -0.2,-1.95 -0.2,-2.13 0,-0.28 0.1,-0.59 0.6,-0.59 0.6,0 0.6,0.31 0.6,0.91 l 0.7,6.06 c 0.1,1.05 -0.2,1.05 -1,1.05 h -19.2 c -0.7,0 -1.1,0 -1.1,-0.77 0,-0.48 0.4,-0.48 1.1,-0.48 0.6,0 0.7,0 1.4,-0.08 0.7,-0.07 0.7,-0.13 0.7,-0.49 0,-0.23 -0.1,-0.59 -0.1,-0.76 l -4.6,-18.22 c -0.3,-1.36 -0.4,-1.61 -3.1,-1.61 -0.6,0 -1,0 -1,-0.77 0,-0.48 0.4,-0.48 1,-0.48 h 19.7 c 0.9,0 0.9,0 1.2,0.62 z"
           inkscape:connector-curvature="0"
           style="fill:#000000;stroke-width:0" /><path
           id="path3616"
           d="m 1334.3,358.89 0,0.38 0,0.38 0,0.39 -0.1,0.41 0,0.84 -0.1,0.88 0,0.92 -0.1,0.95 -0.2,0.98 -0.1,1 -0.2,1.02 -0.3,1.04 -0.2,1.05 -0.3,1.06 -0.4,1.06 -0.4,1.07 -0.2,0.53 -0.2,0.53 -0.3,0.53 -0.2,0.53 c -3,6.13 -7.3,9.36 -7.8,9.36 -0.3,0 -0.5,-0.19 -0.5,-0.48 0,-0.16 0,-0.25 1,-1.16 4.9,-4.92 7.7,-12.84 7.7,-23.27 0,-8.51 -1.8,-17.28 -8,-23.56 -0.7,-0.59 -0.7,-0.7 -0.7,-0.84 0,-0.3 0.2,-0.5 0.5,-0.5 0.5,0 5,3.39 7.9,9.72 2.6,5.47 3.2,11 3.2,15.18 z"
           inkscape:connector-curvature="0"
           style="fill:#000000;stroke-width:0" /></g>    </g>
    <g
       id="g3740"
       transform="matrix(0.28329876,0,0,0.28329876,120.71532,149.12885)">
      <g
         id="g3742"
         transform="matrix(1.0629921,0,0,-1.0629921,-186.02362,789.27165)"
         xml:space="preserve"
         stroke-miterlimit="10.433"
         font-style="normal"
         font-variant="normal"
         font-weight="normal"
         font-stretch="normal"
         font-size-adjust="none"
         letter-spacing="normal"
         word-spacing="normal"
         style="font-style:normal;font-variant:normal;font-weight:normal;font-stretch:normal;letter-spacing:normal;word-spacing:normal;text-anchor:start;fill:none;stroke:#000000;stroke-linecap:butt;stroke-linejoin:miter;stroke-miterlimit:10.43299961;stroke-opacity:1;stroke-dasharray:none;stroke-dashoffset:0"><path
           d="m 1145.8,334.49 0,0.02 0,0.03 0,0.01 0,0.02 0,0.01 0,0.02 0,0.02 0,0.01 0,0.02 0,0.02 -0.1,0.03 0,0.02 0,0.02 0,0.03 0,0.03 0,0.03 -0.1,0.04 0,0.03 0,0.02 0,0.02 -0.1,0.02 0,0.02 0,0.02 0,0.03 0,0.02 -0.1,0.02 0,0.03 0,0.03 0,0.02 -0.1,0.03 0,0.03 0,0.03 0,0.03 -0.1,0.03 0,0.03 0,0.03 -0.1,0.04 0,0.03 0,0.04 -0.1,0.04 0,0.03 0,0.04 c -6.3,6.28 -7.8,15.69 -7.8,23.31 0,8.68 1.8,17.35 8,23.57 0.6,0.61 0.6,0.7 0.6,0.86 0,0.34 -0.2,0.48 -0.5,0.48 -0.5,0 -5,-3.37 -7.9,-9.7 -2.6,-5.49 -3.1,-11.02 -3.1,-15.21 0,-3.89 0.5,-9.9 3.2,-15.54 3,-6.13 7.3,-9.36 7.8,-9.36 0.3,0 0.5,0.14 0.5,0.5 z"
           id="path3744"
           inkscape:connector-curvature="0"
           style="fill:#000000;stroke-width:0" /><path
           d="m 1172.8,366.93 -4.2,9.9 c -0.1,0.41 -0.2,0.6 -0.2,0.64 0,0.32 0.8,1.25 2.9,1.46 0.5,0.04 1,0.09 1,0.95 0,0.59 -0.6,0.59 -0.7,0.59 -2.1,0 -4.2,-0.15 -6.3,-0.15 -1.3,0 -4.4,0.15 -5.6,0.15 -0.3,0 -0.9,0 -0.9,-1 0,-0.54 0.5,-0.54 1.1,-0.54 3,0 3.3,-0.5 3.8,-1.6 l 5.9,-13.9 -10.6,-11.32 -0.6,-0.54 c -2.4,-2.64 -4.8,-3.44 -7.3,-3.58 -0.7,-0.05 -1.1,-0.05 -1.1,-1 0,-0.05 0,-0.55 0.6,-0.55 1.5,0 3.2,0.16 4.7,0.16 1.9,0 3.8,-0.16 5.6,-0.16 0.3,0 0.9,0 0.9,1 0,0.5 -0.5,0.55 -0.6,0.55 -0.4,0.05 -2,0.14 -2,1.55 0,0.79 0.7,1.59 1.3,2.23 l 5.1,5.39 4.5,4.88 5,-11.91 c 0.2,-0.55 0.3,-0.59 0.3,-0.7 0,-0.39 -1,-1.24 -2.9,-1.44 -0.6,-0.05 -1,-0.11 -1,-0.95 0,-0.6 0.6,-0.6 0.7,-0.6 1.5,0 4.9,0.16 6.3,0.16 1.3,0 4.3,-0.16 5.6,-0.16 0.3,0 0.9,0 0.9,0.95 0,0.6 -0.5,0.6 -0.9,0.6 -3.3,0.05 -3.4,0.2 -4.3,2.19 -1.9,4.64 -5.3,12.4 -6.4,15.39 3.4,3.5 8.6,9.42 10.2,10.81 1.5,1.2 3.3,2.39 6.3,2.55 0.7,0.04 1.1,0.04 1.1,1 0,0.04 0,0.54 -0.6,0.54 -1.5,0 -3.2,-0.15 -4.7,-0.15 -1.8,0 -3.7,0.15 -5.5,0.15 -0.3,0 -1,0 -1,-1 0,-0.34 0.3,-0.5 0.6,-0.54 0.5,-0.05 2,-0.16 2,-1.55 0,-0.7 -0.5,-1.34 -0.9,-1.8 z"
           id="path3746"
           inkscape:connector-curvature="0"
           style="fill:#000000;stroke-width:0" /><path
           d="m 1226,358.57 0.6,0.9 c 0.8,0.94 1.6,1.82 3.3,1.96 0.4,0.03 0.8,0.06 0.8,0.76 0,0.25 -0.2,0.49 -0.5,0.49 -0.8,0 -1.8,-0.14 -2.6,-0.14 -1.2,0 -2.7,0.14 -3.9,0.14 -0.1,0 -0.7,0 -0.7,-0.77 0,-0.45 0.5,-0.48 0.6,-0.48 0.8,-0.04 1.9,-0.25 1.9,-1.22 0,-0.39 -0.3,-1.02 -0.5,-1.25 l -9.8,-16.14 -1.9,17.59 c 0,0.98 2,1.02 2.4,1.02 0.5,0 0.9,0 0.9,0.76 0,0.03 0,0.49 -0.5,0.49 -0.7,0 -1.5,-0.07 -2.2,-0.11 -0.7,-0.03 -1.6,-0.03 -2.3,-0.03 -0.8,0 -2.9,0.14 -3.7,0.14 -0.1,0 -0.7,0 -0.7,-0.77 0,-0.48 0.5,-0.48 0.9,-0.48 1.5,0 1.7,-0.25 1.8,-0.6 0,-0.2 0.1,-1.19 0.3,-2.26 l -9.6,-15.75 -1.9,17.07 c 0,0.15 0,0.49 0,0.52 0,1.02 2.1,1.02 2.4,1.02 0.5,0 1,0 1,0.76 0,0.14 -0.2,0.49 -0.6,0.49 -1,0 -3.5,-0.14 -4.5,-0.14 -1.2,0 -2.6,0.14 -3.7,0.14 -0.3,0 -0.7,-0.14 -0.7,-0.74 0,-0.51 0.5,-0.51 1,-0.51 1.6,0 1.6,-0.22 1.8,-1.08 l 2.3,-21.22 c 0.1,-0.7 0.1,-0.95 0.7,-0.95 0.6,0 0.9,0.31 1.1,0.7 l 10.8,17.91 1.9,-17.71 c 0.1,-0.72 0.3,-0.9 0.8,-0.9 0.6,0 0.8,0.31 1.1,0.73 z"
           id="path3748"
           inkscape:connector-curvature="0"
           style="fill:#000000;stroke-width:0" /><path
           d="m 1245.4,346.49 0,0.3 0,0.3 0,0.29 -0.1,0.28 0,0.27 0,0.27 -0.1,0.25 0,0.25 -0.1,0.23 -0.1,0.23 0,0.22 -0.1,0.21 -0.1,0.2 -0.1,0.2 -0.1,0.18 -0.1,0.17 -0.1,0.17 -0.1,0.15 -0.1,0.14 -0.1,0.14 -0.2,0.12 -0.1,0.11 -0.1,0.11 -0.2,0.09 -0.1,0.08 -0.2,0.07 -0.1,0.06 -0.2,0.05 -0.2,0.04 -0.1,0.03 -0.2,0.02 -0.2,0 c -1.6,0 -2.6,-1.25 -2.6,-2.64 0,-1.34 1,-2.64 2.6,-2.64 0.6,0 1.2,0.2 1.7,0.64 0.2,0.11 0.3,0.16 0.3,0.16 0,0 0.1,-0.05 0.1,-0.75 0,-3.69 -1.7,-6.67 -3.4,-8.31 -0.5,-0.55 -0.5,-0.66 -0.5,-0.8 0,-0.36 0.2,-0.55 0.5,-0.55 0.5,0 4.5,3.83 4.5,9.66 z"
           id="path3750"
           inkscape:connector-curvature="0"
           style="fill:#000000;stroke-width:0" /><path
           d="m 1287.1,374.79 0.7,0.7 c 1.5,1.5 3.1,3.19 6.5,3.44 0.6,0.04 1,0.04 1,0.95 0,0.39 -0.2,0.59 -0.6,0.59 -1.3,0 -2.8,-0.15 -4.1,-0.15 -1.7,0 -3.4,0.15 -5,0.15 -0.3,0 -0.9,0 -0.9,-0.95 0,-0.55 0.5,-0.59 0.7,-0.59 0.4,0 1.8,-0.1 1.8,-1.14 0,-0.86 -1.1,-2.15 -1.3,-2.4 l -11.6,-13.31 -5.5,14.8 c -0.3,0.7 -0.3,0.8 -0.3,0.84 0,1.21 2.4,1.21 2.9,1.21 0.8,0 1.3,0 1.3,1 0,0.54 -0.6,0.54 -0.8,0.54 -1.4,0 -4.9,-0.15 -6.3,-0.15 -1.2,0 -4.3,0.15 -5.6,0.15 -0.2,0 -0.9,0 -0.9,-1 0,-0.54 0.5,-0.54 1.1,-0.54 3,0 3.2,-0.46 3.7,-1.69 l 6.1,-16.41 c 0.1,-0.14 0.2,-0.69 0.2,-0.84 0,-0.14 -2,-8.17 -2.2,-9.06 -0.7,-2.74 -0.7,-2.89 -4.7,-2.94 -1,0 -1.4,0 -1.4,-1 0,-0.55 0.6,-0.55 0.7,-0.55 1.4,0 4.9,0.16 6.3,0.16 1.4,0 5,-0.16 6.4,-0.16 0.3,0 0.9,0 0.9,1 0,0.55 -0.4,0.55 -1.4,0.55 0,0 -1,0 -1.9,0.09 -1,0.11 -1.3,0.21 -1.3,0.8 0,0.36 0.5,2.09 0.7,3.14 l 1.7,7.03 c 0.3,0.94 0.3,1.09 0.8,1.55 z"
           id="path3752"
           inkscape:connector-curvature="0"
           style="fill:#000000;stroke-width:0" /><path
           d="m 1322.4,358.57 0.6,0.9 c 0.7,0.94 1.6,1.82 3.3,1.96 0.4,0.03 0.8,0.06 0.8,0.76 0,0.25 -0.2,0.49 -0.5,0.49 -0.8,0 -1.8,-0.14 -2.7,-0.14 -1.2,0 -2.7,0.14 -3.8,0.14 -0.2,0 -0.8,0 -0.8,-0.77 0,-0.45 0.5,-0.48 0.7,-0.48 0.8,-0.04 1.9,-0.25 1.9,-1.22 0,-0.39 -0.4,-1.02 -0.5,-1.25 l -9.8,-16.14 -2,17.59 c 0,0.98 2,1.02 2.5,1.02 0.4,0 0.9,0 0.9,0.76 0,0.03 0,0.49 -0.6,0.49 -0.6,0 -1.5,-0.07 -2.2,-0.11 -0.6,-0.03 -1.5,-0.03 -2.3,-0.03 -0.7,0 -2.8,0.14 -3.6,0.14 -0.2,0 -0.7,0 -0.7,-0.77 0,-0.48 0.5,-0.48 0.9,-0.48 1.5,0 1.7,-0.25 1.8,-0.6 0,-0.2 0.1,-1.19 0.2,-2.26 l -9.6,-15.75 -1.8,17.07 c 0,0.15 -0.1,0.49 -0.1,0.52 0,1.02 2.2,1.02 2.5,1.02 0.4,0 0.9,0 0.9,0.76 0,0.14 -0.1,0.49 -0.6,0.49 -1,0 -3.4,-0.14 -4.4,-0.14 -1.2,0 -2.7,0.14 -3.7,0.14 -0.4,0 -0.7,-0.14 -0.7,-0.74 0,-0.51 0.4,-0.51 1,-0.51 1.6,0 1.6,-0.22 1.7,-1.08 l 2.4,-21.22 c 0,-0.7 0.1,-0.95 0.7,-0.95 0.6,0 0.8,0.31 1,0.7 l 10.9,17.91 1.9,-17.71 c 0.1,-0.72 0.3,-0.9 0.8,-0.9 0.6,0 0.8,0.31 1,0.73 z"
           id="path3754"
           inkscape:connector-curvature="0"
           style="fill:#000000;stroke-width:0" /><path
           d="m 1346,358.89 0,0.38 0,0.38 0,0.39 0,0.41 0,0.84 -0.1,0.88 -0.1,0.92 -0.1,0.95 -0.1,0.98 -0.2,1 -0.2,1.02 -0.2,1.04 -0.3,1.05 -0.3,1.06 -0.3,1.06 -0.4,1.07 -0.2,0.53 -0.3,0.53 -0.2,0.53 -0.2,0.53 c -3,6.13 -7.3,9.36 -7.8,9.36 -0.3,0 -0.5,-0.19 -0.5,-0.48 0,-0.16 0,-0.25 0.9,-1.16 4.9,-4.92 7.8,-12.84 7.8,-23.27 0,-8.51 -1.9,-17.28 -8.1,-23.56 -0.6,-0.59 -0.6,-0.7 -0.6,-0.84 0,-0.3 0.2,-0.5 0.5,-0.5 0.5,0 4.9,3.39 7.9,9.72 2.5,5.47 3.1,11 3.1,15.18 z"
           id="path3756"
           inkscape:connector-curvature="0"
           style="fill:#000000;stroke-width:0" /></g>    </g>
    <g
       id="g3898"
       transform="matrix(0.28329876,0,0,0.28329876,123.49585,223.6945)">
      <g
         word-spacing="normal"
         letter-spacing="normal"
         font-size-adjust="none"
         font-stretch="normal"
         font-weight="normal"
         font-variant="normal"
         font-style="normal"
         stroke-miterlimit="10.433"
         xml:space="preserve"
         transform="matrix(1.0629921,0,0,-1.0629921,-186.02362,789.27165)"
         id="g3900"
         style="font-style:normal;font-variant:normal;font-weight:normal;font-stretch:normal;letter-spacing:normal;word-spacing:normal;text-anchor:start;fill:none;stroke:#000000;stroke-linecap:butt;stroke-linejoin:miter;stroke-miterlimit:10.43299961;stroke-opacity:1;stroke-dasharray:none;stroke-dashoffset:0"><path
           id="path3902"
           d="m 1153.2,334.49 0,0.02 0,0.03 0,0.01 0,0.02 0,0.01 0,0.02 0,0.02 0,0.01 0,0.02 0,0.02 0,0.03 0,0.02 0,0.02 -0.1,0.03 0,0.03 0,0.03 0,0.04 -0.1,0.03 0,0.02 0,0.02 0,0.02 0,0.02 0,0.02 -0.1,0.03 0,0.02 0,0.02 0,0.03 -0.1,0.03 0,0.02 0,0.03 0,0.03 -0.1,0.03 0,0.03 0,0.03 -0.1,0.03 0,0.03 0,0.04 -0.1,0.03 0,0.04 0,0.04 -0.1,0.03 0,0.04 c -6.2,6.28 -7.8,15.69 -7.8,23.31 0,8.68 1.9,17.35 8,23.57 0.6,0.61 0.6,0.7 0.6,0.86 0,0.34 -0.1,0.48 -0.4,0.48 -0.5,0 -5,-3.37 -8,-9.7 -2.5,-5.49 -3.1,-11.02 -3.1,-15.21 0,-3.89 0.5,-9.9 3.3,-15.54 3,-6.13 7.3,-9.36 7.8,-9.36 0.3,0 0.4,0.14 0.4,0.5 z"
           inkscape:connector-curvature="0"
           style="fill:#000000;stroke-width:0" /><path
           id="path3904"
           d="m 1180.2,366.93 -4.1,9.9 c -0.2,0.41 -0.3,0.6 -0.3,0.64 0,0.32 0.9,1.25 3,1.46 0.4,0.04 1,0.09 1,0.95 0,0.59 -0.7,0.59 -0.8,0.59 -2.1,0 -4.2,-0.15 -6.3,-0.15 -1.2,0 -4.3,0.15 -5.6,0.15 -0.3,0 -0.9,0 -0.9,-1 0,-0.54 0.5,-0.54 1.2,-0.54 3,0 3.3,-0.5 3.7,-1.6 l 5.9,-13.9 -10.5,-11.32 -0.7,-0.54 c -2.4,-2.64 -4.7,-3.44 -7.3,-3.58 -0.6,-0.05 -1.1,-0.05 -1.1,-1 0,-0.05 0,-0.55 0.7,-0.55 1.5,0 3.1,0.16 4.7,0.16 1.8,0 3.8,-0.16 5.5,-0.16 0.3,0 0.9,0 0.9,1 0,0.5 -0.5,0.55 -0.6,0.55 -0.4,0.05 -2,0.14 -2,1.55 0,0.79 0.8,1.59 1.4,2.23 l 5.1,5.39 4.5,4.88 5,-11.91 c 0.2,-0.55 0.2,-0.59 0.2,-0.7 0,-0.39 -0.9,-1.24 -2.9,-1.44 -0.5,-0.05 -1,-0.11 -1,-0.95 0,-0.6 0.6,-0.6 0.8,-0.6 1.4,0 4.9,0.16 6.3,0.16 1.2,0 4.2,-0.16 5.5,-0.16 0.3,0 0.9,0 0.9,0.95 0,0.6 -0.5,0.6 -0.8,0.6 -3.4,0.05 -3.5,0.2 -4.3,2.19 -2,4.64 -5.3,12.4 -6.5,15.39 3.4,3.5 8.6,9.42 10.3,10.81 1.4,1.2 3.3,2.39 6.3,2.55 0.6,0.04 1.1,0.04 1.1,1 0,0.04 0,0.54 -0.7,0.54 -1.5,0 -3.1,-0.15 -4.7,-0.15 -1.8,0 -3.7,0.15 -5.5,0.15 -0.3,0 -0.9,0 -0.9,-1 0,-0.34 0.2,-0.5 0.6,-0.54 0.4,-0.05 2,-0.16 2,-1.55 0,-0.7 -0.6,-1.34 -1,-1.8 z"
           inkscape:connector-curvature="0"
           style="fill:#000000;stroke-width:0" /><path
           id="path3906"
           d="m 1226.7,359.85 0,0.12 0,0.11 0,0.11 0.1,0.1 0,0.09 0,0.1 0.1,0.08 0,0.08 0,0.08 0.1,0.07 0,0.07 0.1,0.06 0,0.05 0.1,0.06 0,0.05 0.1,0.04 0.1,0.05 0.1,0.03 0,0.04 0.1,0.03 0.1,0.03 0.1,0.01 0.1,0.01 0,0.01 0.1,0.01 0,0.01 0.1,0.01 0.1,0.01 0.1,0.01 0,0.01 0.1,0 0.1,0.01 0.1,0 0.1,0.01 0.1,0 0.1,0 0.1,0.01 0.1,0 0.1,0 0.1,0 0.1,0.01 0.1,0 0.1,0 c 0.8,0 1.2,0 1.2,0.76 0,0.14 -0.1,0.49 -0.6,0.49 -1,0 -3.5,-0.14 -4.5,-0.14 -0.6,0 -1.8,0 -2.4,0.03 -0.7,0.04 -1.5,0.11 -2.2,0.11 -0.2,0 -0.7,0 -0.7,-0.77 0,-0.48 0.4,-0.48 1.1,-0.48 0,0 0.7,0 1.3,-0.08 0.7,-0.06 0.8,-0.14 0.8,-0.49 0,-0.03 0,-0.23 -0.2,-0.76 l -2,-8.22 h -11.7 l 2.1,8.08 c 0.3,1.18 0.3,1.47 3,1.47 0.6,0 1.1,0 1.1,0.76 0,0.14 -0.1,0.49 -0.6,0.49 -1,0 -3.5,-0.14 -4.6,-0.14 -0.6,0 -1.8,0 -2.4,0.03 -0.7,0.04 -1.5,0.11 -2.2,0.11 -0.2,0 -0.7,0 -0.7,-0.77 0,-0.48 0.4,-0.48 1.1,-0.48 0.1,0 0.7,0 1.3,-0.08 0.8,-0.06 0.9,-0.14 0.9,-0.49 0,-0.06 0,-0.23 -0.2,-0.76 l -4.6,-18.5 c -0.3,-1.19 -0.4,-1.47 -3.1,-1.47 -0.6,0 -1,0 -1,-0.74 0,-0.34 0.2,-0.51 0.5,-0.51 1,0 3.5,0.14 4.5,0.14 0.6,0 1.9,0 2.4,-0.03 0.7,-0.05 1.6,-0.11 2.3,-0.11 0.2,0 0.7,0 0.7,0.73 0,0.52 -0.3,0.52 -1.1,0.52 -0.6,0 -0.7,0 -1.3,0.08 -0.8,0.09 -0.8,0.17 -0.8,0.51 0,0.03 0,0.25 0.1,0.77 l 2.3,9.14 h 11.7 l -2.3,-9.03 c -0.2,-1.19 -0.3,-1.47 -3,-1.47 -0.6,0 -1.1,0 -1.1,-0.74 0,-0.34 0.2,-0.51 0.6,-0.51 1,0 3.5,0.14 4.5,0.14 0.6,0 1.8,0 2.4,-0.03 0.7,-0.05 1.6,-0.11 2.2,-0.11 0.2,0 0.8,0 0.8,0.73 0,0.52 -0.4,0.52 -1.2,0.52 -0.6,0 -0.7,0 -1.3,0.08 -0.8,0.09 -0.8,0.17 -0.8,0.51 0,0.22 0.1,0.57 0.2,0.77 z"
           inkscape:connector-curvature="0"
           style="fill:#000000;stroke-width:0" /><path
           id="path3908"
           d="m 1245.4,346.49 0,0.3 0,0.3 0,0.29 -0.1,0.28 0,0.27 0,0.27 -0.1,0.25 0,0.25 -0.1,0.23 -0.1,0.23 0,0.22 -0.1,0.21 -0.1,0.2 -0.1,0.2 -0.1,0.18 -0.1,0.17 -0.1,0.17 -0.1,0.15 -0.1,0.14 -0.1,0.14 -0.2,0.12 -0.1,0.11 -0.1,0.11 -0.2,0.09 -0.1,0.08 -0.2,0.07 -0.1,0.06 -0.2,0.05 -0.2,0.04 -0.1,0.03 -0.2,0.02 -0.2,0 c -1.6,0 -2.6,-1.25 -2.6,-2.64 0,-1.34 1,-2.64 2.6,-2.64 0.6,0 1.2,0.2 1.7,0.64 0.2,0.11 0.3,0.16 0.3,0.16 0,0 0.1,-0.05 0.1,-0.75 0,-3.69 -1.7,-6.67 -3.4,-8.31 -0.5,-0.55 -0.5,-0.66 -0.5,-0.8 0,-0.36 0.2,-0.55 0.5,-0.55 0.5,0 4.5,3.83 4.5,9.66 z"
           inkscape:connector-curvature="0"
           style="fill:#000000;stroke-width:0" /><path
           id="path3910"
           d="m 1287.1,374.79 0.7,0.7 c 1.5,1.5 3.1,3.19 6.5,3.44 0.6,0.04 1,0.04 1,0.95 0,0.39 -0.2,0.59 -0.6,0.59 -1.3,0 -2.8,-0.15 -4.1,-0.15 -1.7,0 -3.4,0.15 -5,0.15 -0.3,0 -0.9,0 -0.9,-0.95 0,-0.55 0.5,-0.59 0.7,-0.59 0.4,0 1.8,-0.1 1.8,-1.14 0,-0.86 -1.1,-2.15 -1.3,-2.4 l -11.6,-13.31 -5.5,14.8 c -0.3,0.7 -0.3,0.8 -0.3,0.84 0,1.21 2.4,1.21 2.9,1.21 0.8,0 1.3,0 1.3,1 0,0.54 -0.6,0.54 -0.8,0.54 -1.4,0 -4.9,-0.15 -6.3,-0.15 -1.2,0 -4.3,0.15 -5.6,0.15 -0.2,0 -0.9,0 -0.9,-1 0,-0.54 0.5,-0.54 1.1,-0.54 3,0 3.2,-0.46 3.7,-1.69 l 6.1,-16.41 c 0.1,-0.14 0.2,-0.69 0.2,-0.84 0,-0.14 -2,-8.17 -2.2,-9.06 -0.7,-2.74 -0.7,-2.89 -4.7,-2.94 -1,0 -1.4,0 -1.4,-1 0,-0.55 0.6,-0.55 0.7,-0.55 1.4,0 4.9,0.16 6.3,0.16 1.4,0 5,-0.16 6.4,-0.16 0.3,0 0.9,0 0.9,1 0,0.55 -0.4,0.55 -1.4,0.55 0,0 -1,0 -1.9,0.09 -1,0.11 -1.3,0.21 -1.3,0.8 0,0.36 0.5,2.09 0.7,3.14 l 1.7,7.03 c 0.3,0.94 0.3,1.09 0.8,1.55 z"
           inkscape:connector-curvature="0"
           style="fill:#000000;stroke-width:0" /><path
           id="path3912"
           d="m 1315.6,359.85 0,0.12 0,0.11 0.1,0.11 0,0.1 0,0.09 0.1,0.1 0,0.08 0,0.08 0.1,0.08 0,0.07 0,0.07 0.1,0.06 0,0.05 0.1,0.06 0.1,0.05 0,0.04 0.1,0.05 0.1,0.03 0.1,0.04 0.1,0.03 0.1,0.03 0,0.01 0.1,0.01 0,0.01 0.1,0.01 0.1,0.01 0,0.01 0.1,0.01 0.1,0.01 0.1,0.01 0,0 0.1,0.01 0.1,0 0.1,0.01 0.1,0 0.1,0 0.1,0.01 0.1,0 0.1,0 0.1,0 0.1,0.01 0.1,0 0.2,0 c 0.7,0 1.1,0 1.1,0.76 0,0.14 -0.1,0.49 -0.5,0.49 -1,0 -3.6,-0.14 -4.6,-0.14 -0.6,0 -1.8,0 -2.4,0.03 -0.7,0.04 -1.5,0.11 -2.2,0.11 -0.2,0 -0.7,0 -0.7,-0.77 0,-0.48 0.4,-0.48 1.1,-0.48 0,0 0.7,0 1.3,-0.08 0.7,-0.06 0.8,-0.14 0.8,-0.49 0,-0.03 0,-0.23 -0.1,-0.76 l -2.1,-8.22 h -11.6 l 2,8.08 c 0.3,1.18 0.4,1.47 3,1.47 0.6,0 1.1,0 1.1,0.76 0,0.14 -0.1,0.49 -0.6,0.49 -1,0 -3.5,-0.14 -4.5,-0.14 -0.6,0 -1.9,0 -2.5,0.03 -0.6,0.04 -1.5,0.11 -2.1,0.11 -0.2,0 -0.8,0 -0.8,-0.77 0,-0.48 0.5,-0.48 1.1,-0.48 0.1,0 0.7,0 1.4,-0.08 0.7,-0.06 0.8,-0.14 0.8,-0.49 0,-0.06 0,-0.23 -0.2,-0.76 l -4.6,-18.5 c -0.3,-1.19 -0.4,-1.47 -3.1,-1.47 -0.6,0 -1,0 -1,-0.74 0,-0.34 0.2,-0.51 0.5,-0.51 1,0 3.6,0.14 4.6,0.14 0.6,0 1.8,0 2.4,-0.03 0.7,-0.05 1.6,-0.11 2.2,-0.11 0.2,0 0.7,0 0.7,0.73 0,0.52 -0.3,0.52 -1.1,0.52 -0.6,0 -0.7,0 -1.3,0.08 -0.8,0.09 -0.8,0.17 -0.8,0.51 0,0.03 0,0.25 0.1,0.77 l 2.3,9.14 h 11.7 l -2.2,-9.03 c -0.3,-1.19 -0.4,-1.47 -3.1,-1.47 -0.6,0 -1.1,0 -1.1,-0.74 0,-0.34 0.3,-0.51 0.6,-0.51 1,0 3.5,0.14 4.5,0.14 0.6,0 1.8,0 2.4,-0.03 0.7,-0.05 1.6,-0.11 2.3,-0.11 0.1,0 0.7,0 0.7,0.73 0,0.52 -0.4,0.52 -1.2,0.52 -0.5,0 -0.7,0 -1.3,0.08 -0.8,0.09 -0.8,0.17 -0.8,0.51 0,0.22 0.1,0.57 0.2,0.77 z"
           inkscape:connector-curvature="0"
           style="fill:#000000;stroke-width:0" /><path
           id="path3914"
           d="m 1338.5,358.89 0,0.38 0,0.38 0,0.39 -0.1,0.41 0,0.84 -0.1,0.88 0,0.92 -0.1,0.95 -0.2,0.98 -0.1,1 -0.2,1.02 -0.3,1.04 -0.2,1.05 -0.3,1.06 -0.4,1.06 -0.4,1.07 -0.2,0.53 -0.2,0.53 -0.3,0.53 -0.2,0.53 c -3,6.13 -7.3,9.36 -7.8,9.36 -0.3,0 -0.5,-0.19 -0.5,-0.48 0,-0.16 0,-0.25 1,-1.16 4.9,-4.92 7.7,-12.84 7.7,-23.27 0,-8.51 -1.8,-17.28 -8,-23.56 -0.7,-0.59 -0.7,-0.7 -0.7,-0.84 0,-0.3 0.2,-0.5 0.5,-0.5 0.5,0 5,3.39 7.9,9.72 2.6,5.47 3.2,11 3.2,15.18 z"
           inkscape:connector-curvature="0"
           style="fill:#000000;stroke-width:0" /></g>    </g>
    <path
       style="fill:none;stroke:#0000ff;stroke-width:1px;stroke-linecap:butt;stroke-linejoin:miter;stroke-opacity:1"
       d="m 217.5,150.57647 89.64286,112.5"
       id="path3998"
       inkscape:connector-curvature="0" />
    <path
       style="fill:none;stroke:#ff0000;stroke-width:1px;stroke-linecap:butt;stroke-linejoin:miter;stroke-opacity:1"
       d="m 306.42857,263.07647 103.21429,21.42857"
       id="path4774"
       inkscape:connector-curvature="0"
       sodipodi:nodetypes="cc" />
    <path
       style="fill:none;stroke:#008400;stroke-width:1px;stroke-linecap:butt;stroke-linejoin:miter;stroke-opacity:1"
       d="m 409.64286,284.50504 15.71429,31.07143"
       id="path4776"
       inkscape:connector-curvature="0" />
    <path
       sodipodi:type="arc"
       style="fill:#000000;stroke:#00ff00;stroke-width:0;stroke-miterlimit:4;stroke-opacity:1;stroke-dasharray:none;stroke-dashoffset:0"
       id="path4780"
       sodipodi:cx="182.85715"
       sodipodi:cy="281.29074"
       sodipodi:rx="4.6428571"
       sodipodi:ry="4.6428571"
       d="m 187.5,281.29074 c 0,2.56418 -2.07867,4.64286 -4.64285,4.64286 -2.56418,0 -4.64286,-2.07868 -4.64286,-4.64286 0,-2.56418 2.07868,-4.64286 4.64286,-4.64286 2.56418,0 4.64285,2.07868 4.64285,4.64286 z"
       transform="matrix(0.75384616,0,0,0.75384616,272.97002,72.944928)" />
    <path
       transform="matrix(0.75384616,0,0,0.75384616,170.32208,50.950018)"
       sodipodi:type="arc"
       style="fill:#000000;stroke:#00ff00;stroke-width:0;stroke-miterlimit:4;stroke-opacity:1;stroke-dasharray:none;stroke-dashoffset:0"
       id="path4780-5"
       sodipodi:cx="182.85715"
       sodipodi:cy="281.29074"
       sodipodi:rx="4.6428571"
       sodipodi:ry="4.6428571"
       d="m 187.5,281.29074 c 0,2.56418 -2.07867,4.64286 -4.64285,4.64286 -2.56418,0 -4.64286,-2.07868 -4.64286,-4.64286 0,-2.56418 2.07868,-4.64286 4.64286,-4.64286 2.56418,0 4.64285,2.07868 4.64285,4.64286 z" />
    <path
       transform="matrix(0.75384616,0,0,0.75384616,79.66907,-62.350923)"
       sodipodi:type="arc"
       style="fill:#000000;stroke:#00ff00;stroke-width:0;stroke-miterlimit:4;stroke-opacity:1;stroke-dasharray:none;stroke-dashoffset:0"
       id="path4780-5-8"
       sodipodi:cx="182.85715"
       sodipodi:cy="281.29074"
       sodipodi:rx="4.6428571"
       sodipodi:ry="4.6428571"
       d="m 187.5,281.29074 c 0,2.56418 -2.07867,4.64286 -4.64285,4.64286 -2.56418,0 -4.64286,-2.07868 -4.64286,-4.64286 0,-2.56418 2.07868,-4.64286 4.64286,-4.64286 2.56418,0 4.64285,2.07868 4.64285,4.64286 z" />
    <path
       sodipodi:type="arc"
       style="fill:#000000;stroke:#00ff00;stroke-width:0;stroke-miterlimit:4;stroke-opacity:1;stroke-dasharray:none;stroke-dashoffset:0"
       id="path4780-9"
       sodipodi:cx="182.85715"
       sodipodi:cy="281.29074"
       sodipodi:rx="4.6428571"
       sodipodi:ry="4.6428571"
       d="m 187.5,281.29074 c 0,2.56418 -2.07867,4.64286 -4.64285,4.64286 -2.56418,0 -4.64286,-2.07868 -4.64286,-4.64286 0,-2.56418 2.07868,-4.64286 4.64286,-4.64286 2.56418,0 4.64285,2.07868 4.64285,4.64286 z"
       transform="matrix(0.75384616,0,0,0.75384616,288.65892,105.7767)" />
    <g
       id="g4914"
       transform="matrix(0.43768956,0,0,0.43768956,-296.0044,-62.937136)">
      <g
         id="g4916"
         transform="matrix(1.0629921,0,0,-1.0629921,-186.02362,789.27165)"
         xml:space="preserve"
         stroke-miterlimit="10.433"
         font-style="normal"
         font-variant="normal"
         font-weight="normal"
         font-stretch="normal"
         font-size-adjust="none"
         letter-spacing="normal"
         word-spacing="normal"
         style="font-style:normal;font-variant:normal;font-weight:normal;font-stretch:normal;letter-spacing:normal;word-spacing:normal;text-anchor:start;fill:none;stroke:#000000;stroke-linecap:butt;stroke-linejoin:miter;stroke-miterlimit:10.43299961;stroke-opacity:1;stroke-dasharray:none;stroke-dashoffset:0"><path
           d="m 1251.2,365.43 0,0.03 0,0.03 0.1,0.06 0,0.05 0,0.06 0,0.05 0,0.05 0,0.04 0,0.05 0,0.04 0,0.04 0.1,0.03 0,0.04 0,0.03 0,0.03 0,0.04 0,0.02 0,0.03 0,0.03 0,0.06 0,0.05 0,0.05 0,0.05 0,0.06 0,0.03 0,0.02 0,0.03 0,0.04 c 0,0.9 -0.7,1.34 -1.4,1.34 -0.5,0 -1.3,-0.3 -1.8,-1.05 -0.1,-0.25 -0.5,-1.78 -0.7,-2.68 -0.3,-1.3 -0.7,-2.64 -1,-3.99 l -2.2,-8.97 c -0.2,-0.75 -2.4,-4.23 -5.6,-4.23 -2.6,0 -3.1,2.19 -3.1,4.03 0,2.3 0.8,5.39 2.5,9.77 0.8,2.04 1,2.59 1,3.59 0,2.23 -1.6,4.08 -4.1,4.08 -4.7,0 -6.6,-7.22 -6.6,-7.67 0,-0.5 0.5,-0.5 0.7,-0.5 0.5,0 0.5,0.1 0.7,0.9 1.4,4.69 3.4,6.17 5.1,6.17 0.4,0 1.2,0 1.2,-1.59 0,-1.25 -0.5,-2.53 -0.8,-3.48 -2,-5.29 -2.9,-8.13 -2.9,-10.47 0,-4.43 3.1,-5.93 6,-5.93 2,0 3.7,0.85 5.1,2.24 -0.7,-2.58 -1.3,-5.03 -3.3,-7.67 -1.3,-1.69 -3.1,-3.14 -5.4,-3.14 -0.7,0 -3,0.15 -3.8,2.09 0.8,0 1.4,0 2.1,0.61 0.5,0.44 1,1.09 1,2.03 0,1.55 -1.3,1.75 -1.8,1.75 -1.2,0 -2.8,-0.8 -2.8,-3.23 0,-2.5 2.2,-4.35 5.3,-4.35 5.1,0 10.2,4.55 11.6,10.17 z"
           id="path4918"
           inkscape:connector-curvature="0"
           style="fill:#000000;stroke-width:0" /></g>    </g>
    <g
       id="g5080"
       transform="matrix(0.42097837,0,0,0.42097837,49.866664,-39.656704)">
      <g
         word-spacing="normal"
         letter-spacing="normal"
         font-size-adjust="none"
         font-stretch="normal"
         font-weight="normal"
         font-variant="normal"
         font-style="normal"
         stroke-miterlimit="10.433"
         xml:space="preserve"
         transform="matrix(1.0629921,0,0,-1.0629921,-186.02362,789.27165)"
         id="g5082"
         style="font-style:normal;font-variant:normal;font-weight:normal;font-stretch:normal;letter-spacing:normal;word-spacing:normal;text-anchor:start;fill:none;stroke:#000000;stroke-linecap:butt;stroke-linejoin:miter;stroke-miterlimit:10.43299961;stroke-opacity:1;stroke-dasharray:none;stroke-dashoffset:0"><path
           id="path5084"
           d="m 1242.6,361.49 0,0.13 0,0.15 0.1,0.16 0,0.18 0.1,0.2 0,0.2 0.1,0.22 0.1,0.22 0,0.24 0.1,0.24 0.1,0.24 0.1,0.25 0.1,0.25 0.2,0.25 0.1,0.25 0.1,0.24 0.2,0.24 0.1,0.24 0.2,0.23 0.2,0.23 0.2,0.21 0.2,0.2 0.2,0.19 0.2,0.18 0.2,0.16 0.3,0.14 0.1,0.07 0.1,0.06 0.2,0.05 0.1,0.05 0.1,0.05 0.2,0.04 0.1,0.03 0.2,0.03 0.1,0.02 0.2,0.02 0.1,0.01 0.2,0 c 0.3,0 1.4,0 2.5,-0.64 -1.4,-0.25 -2.4,-1.5 -2.4,-2.68 0,-0.8 0.5,-1.75 1.9,-1.75 1.1,0 2.7,0.89 2.7,2.89 0,2.59 -3,3.28 -4.6,3.28 -2.9,0 -4.7,-2.64 -5.3,-3.78 -1.2,3.28 -3.9,3.78 -5.4,3.78 -5.1,0 -8,-6.42 -8,-7.67 0,-0.5 0.5,-0.5 0.6,-0.5 0.4,0 0.6,0.1 0.7,0.54 1.6,5.28 4.9,6.53 6.6,6.53 1,0 2.7,-0.43 2.7,-3.32 0,-1.55 -0.8,-4.9 -2.7,-11.86 -0.8,-3.1 -2.5,-5.19 -4.7,-5.19 -0.3,0 -1.4,0 -2.5,0.65 1.3,0.24 2.3,1.29 2.3,2.69 0,1.35 -1,1.74 -1.8,1.74 -1.5,0 -2.7,-1.3 -2.7,-2.89 0,-2.29 2.5,-3.29 4.7,-3.29 3.2,0 5,3.49 5.2,3.79 0.6,-1.85 2.4,-3.79 5.4,-3.79 5.1,0 7.9,6.43 7.9,7.68 0,0.5 -0.4,0.5 -0.6,0.5 -0.4,0 -0.5,-0.21 -0.6,-0.55 -1.6,-5.33 -5,-6.53 -6.6,-6.53 -2,0 -2.8,1.59 -2.8,3.3 0,1.09 0.3,2.18 0.9,4.37 z"
           inkscape:connector-curvature="0"
           style="fill:#000000;stroke-width:0" /></g>    </g>
  </g>
</svg>
